<svg width="212" height="29" viewBox="0 0 212 29" fill="none" xmlns="http://www.w3.org/2000/svg">
<path d="M14.695 28H0.45V1.12H13.68L14.45 3.185L14.275 3.29C13.6217 2.63667 12.9917 2.26333 12.385 2.17C11.8017 2.05333 10.845 1.995 9.515 1.995H2.725V11.445H10.81C11.1833 11.445 11.4633 11.4333 11.65 11.41C11.8367 11.3633 12.0467 11.27 12.28 11.13L12.35 11.165V12.6L12.28 12.635C12.0467 12.495 11.8367 12.4133 11.65 12.39C11.4633 12.3433 11.1833 12.32 10.81 12.32H2.725V27.125H9.69C10.95 27.125 12.1283 27.0433 13.225 26.88C14.3217 26.6933 15.1967 26.285 15.85 25.655L16.025 25.795L14.695 28ZM21.4555 28H19.1805V1.12L19.2505 1.085C19.4371 1.13167 19.6005 1.16667 19.7405 1.19C19.9038 1.21333 20.0788 1.225 20.2655 1.225C21.1288 1.225 21.8755 1.09667 22.5055 0.839999C23.1355 0.583332 24.0221 0.454998 25.1655 0.454998C26.9855 0.454998 28.7471 1.14333 30.4505 2.52C32.1538 3.87333 33.0055 5.705 33.0055 8.015C33.0055 10.745 32.0371 12.705 30.1005 13.895C28.1638 15.085 26.4488 15.68 24.9555 15.68C24.4421 15.68 23.9988 15.645 23.6255 15.575C23.2755 15.4817 23.0305 15.3883 22.8905 15.295L23.0655 14.875C23.2288 14.9217 23.4505 14.98 23.7305 15.05C24.0105 15.12 24.4188 15.155 24.9555 15.155C26.3321 15.155 27.5571 14.5367 28.6305 13.3C29.7271 12.0633 30.2755 10.3017 30.2755 8.015C30.2755 6.055 29.7505 4.42167 28.7005 3.115C27.6738 1.80833 26.3905 1.155 24.8505 1.155C24.1038 1.155 23.4388 1.26 22.8555 1.47C22.2955 1.65667 21.8288 1.86667 21.4555 2.1V28ZM37.9968 1.12V28H35.7918V1.12H37.9968ZM66.6662 25.2C65.8028 25.97 64.5778 26.7283 62.9912 27.475C61.4045 28.2217 59.5145 28.595 57.3212 28.595C53.4478 28.595 49.9595 27.3467 46.8562 24.85C43.7528 22.3533 42.2012 18.97 42.2012 14.7C42.2012 10.2667 43.8112 6.755 47.0312 4.165C50.2745 1.575 53.7862 0.279998 57.5662 0.279998C59.5495 0.279998 61.2878 0.583332 62.7812 1.19C64.2745 1.77333 65.4178 2.35667 66.2112 2.94L65.2662 4.76C64.3795 3.78 63.3178 2.92833 62.0812 2.205C60.8445 1.45833 59.2112 1.085 57.1812 1.085C53.8445 1.06167 50.9862 2.205 48.6062 4.515C46.2262 6.825 45.0362 9.94 45.0362 13.86C45.0362 18.76 46.4362 22.225 49.2362 24.255C52.0362 26.285 54.9762 27.3 58.0562 27.3C60.0628 27.3 61.7895 26.985 63.2362 26.355C64.7062 25.725 65.7445 25.2 66.3512 24.78L66.6662 25.2ZM82.227 28H79.952V1.12H92.482L93.392 3.465L93.217 3.57C92.5636 2.82333 91.9103 2.38 91.257 2.24C90.627 2.07667 89.647 1.995 88.317 1.995H82.227V11.795H88.947C89.3203 11.795 89.6003 11.7833 89.787 11.76C89.9736 11.7133 90.1836 11.62 90.417 11.48L90.487 11.515V12.95L90.417 12.985C90.1836 12.845 89.9736 12.7633 89.787 12.74C89.6003 12.6933 89.3203 12.67 88.947 12.67H82.227V28ZM96.7684 28V1.12H99.0434V27.125H104.223C105.95 27.125 107.257 26.9733 108.143 26.67C109.03 26.3667 109.73 25.9117 110.243 25.305L110.453 25.445L108.913 28H96.7684ZM111.894 14.49C111.871 10.4767 113.434 7.105 116.584 4.375C119.758 1.645 123.176 0.279998 126.839 0.279998C130.526 0.279998 133.944 1.645 137.094 4.375C140.268 7.08167 141.854 10.4533 141.854 14.49C141.854 18.5733 140.268 21.9683 137.094 24.675C133.944 27.3817 130.526 28.735 126.839 28.735C123.176 28.735 119.769 27.3817 116.619 24.675C113.469 21.945 111.894 18.55 111.894 14.49ZM114.869 14.455C114.869 18.3983 116.013 21.6417 118.299 24.185C120.586 26.705 123.433 27.965 126.839 27.965C130.269 27.965 133.128 26.705 135.414 24.185C137.724 21.665 138.879 18.4333 138.879 14.49C138.879 10.57 137.724 7.35 135.414 4.83C133.128 2.31 130.269 1.05 126.839 1.05C123.433 1.05 120.574 2.32167 118.264 4.865C115.978 7.385 114.846 10.5817 114.869 14.455ZM153.615 28L142.52 1.12H145.04L154.63 24.675L157.64 17.395L150.92 1.12H153.335L158.9 14.77L164.5 1.12H165.69L159.495 16.17L162.995 24.78L172.69 1.12H173.88L162.785 28H162.015L158.2 18.76L154.385 28H153.615ZM190.925 28H176.68V1.12H189.91L190.68 3.185L190.505 3.29C189.852 2.63667 189.222 2.26333 188.615 2.17C188.032 2.05333 187.075 1.995 185.745 1.995H178.955V11.445H187.04C187.414 11.445 187.694 11.4333 187.88 11.41C188.067 11.3633 188.277 11.27 188.51 11.13L188.58 11.165V12.6L188.51 12.635C188.277 12.495 188.067 12.4133 187.88 12.39C187.694 12.3433 187.414 12.32 187.04 12.32H178.955V27.125H185.92C187.18 27.125 188.359 27.0433 189.455 26.88C190.552 26.6933 191.427 26.285 192.08 25.655L192.255 25.795L190.925 28ZM208.886 28.28C207.766 28.28 206.786 27.685 205.946 26.495C205.129 25.2817 204.721 23.4967 204.721 21.14V18.41C204.721 15.4233 204.196 13.4517 203.146 12.495C202.119 11.515 201.221 11.025 200.451 11.025C200.218 11.025 199.996 11.0483 199.786 11.095C199.576 11.1417 199.354 11.235 199.121 11.375L199.191 10.57C200.404 10.36 201.536 9.84667 202.586 9.03C203.659 8.21333 204.196 7.01167 204.196 5.425C204.196 4.14167 203.846 3.10333 203.146 2.31C202.469 1.51667 201.583 1.12 200.486 1.12C199.879 1.12 199.354 1.21333 198.911 1.4C198.491 1.56333 198.083 1.77333 197.686 2.03V28H195.411V1.12L195.481 1.085C195.668 1.13167 195.831 1.16667 195.971 1.19C196.111 1.21333 196.274 1.225 196.461 1.225C197.254 1.225 197.908 1.09667 198.421 0.839999C198.934 0.583332 199.693 0.454998 200.696 0.454998C202.283 0.454998 203.683 0.933331 204.896 1.89C206.133 2.84667 206.751 4.025 206.751 5.425C206.751 6.87167 206.004 8.05 204.511 8.96C203.018 9.84667 201.944 10.3717 201.291 10.535C202.318 10.6283 203.519 11.235 204.896 12.355C206.296 13.475 206.996 15.4933 206.996 18.41V20.72C206.996 23.4267 207.253 25.235 207.766 26.145C208.279 27.055 208.863 27.51 209.516 27.51C209.796 27.51 210.064 27.4633 210.321 27.37C210.601 27.2767 210.881 27.09 211.161 26.81L211.371 27.02C211.068 27.4167 210.706 27.7317 210.286 27.965C209.866 28.175 209.399 28.28 208.886 28.28Z" fill="white"/>
</svg>
