<svg width="318" height="64" viewBox="0 0 318 64" fill="none" xmlns="http://www.w3.org/2000/svg">
<path d="M17.0501 38.7H16.6001V35.95C16.6001 31.15 14.0001 30.6 11.2001 30.6H9.20012V45.45C9.20012 46.55 8.70012 47.45 8.10012 48.05V48.1H18.0501C22.8501 48.1 25.1501 46.15 25.5001 41.35L25.8001 37.35H26.6001L25.7501 50.9H25.3001L25.4501 48.55H25.4001C25.0501 48.9 24.3501 49 23.5501 49H0.900122V48.55H2.65012C5.05012 48.55 5.30012 48.3 5.30012 45.9V16.15C5.30012 13.75 5.05012 13.5 2.65012 13.5H0.900122V13.05H20.8501C21.6501 13.05 22.3501 13.15 22.7001 13.5H22.7501L22.6001 11.2L23.0501 11.15L23.9501 24.7H23.0501L22.8501 21.2C22.5501 15.8 19.9501 13.95 15.1501 13.95H8.10012V14C8.70012 14.6 9.20012 15.5 9.20012 16.6V29.7H11.2001C14.0001 29.7 16.6001 29.2 16.6001 24.4V22.65H17.0501V38.7ZM35.938 14V14.25C36.538 15.05 36.788 16.2 36.788 17.35V34.1H39.588C45.888 34.1 49.288 30.6 49.288 24.05C49.288 17.55 45.888 14 39.588 14H35.938ZM28.488 49V48.55H30.238C32.638 48.55 32.888 48.3 32.888 45.9V16.15C32.888 13.75 32.638 13.5 30.238 13.5H28.488V13.05H41.088C48.588 13.05 53.638 17.45 53.638 24.05C53.638 30.65 48.588 35 41.088 35H36.788V45.9C36.788 48.3 37.088 48.55 39.488 48.55H40.738V49H28.488ZM55.8318 49V48.55H57.5818C59.9818 48.55 60.2318 48.35 60.2318 45.95V16.1C60.2318 13.7 59.9818 13.5 57.5818 13.5H55.8318V13.05H68.5818V13.6H66.8318C64.4318 13.6 64.1318 13.8 64.1318 16.2V45.95C64.1318 48.35 64.4318 48.55 66.8318 48.55H68.5818V49H55.8318ZM71.1837 30.9C71.1837 19.95 78.1337 12.65 88.6337 12.65C91.9837 12.65 95.2337 13.7 97.7837 15.85C98.0337 16.1 98.2337 16.5 98.3337 16.85L98.6837 16.75C98.5837 16.35 98.5337 15.85 98.5337 15.3L98.4337 11.7L98.8837 11.65L99.3337 26.1L98.4337 26.15L98.2837 21.5C98.0337 17 93.1837 13.5 88.2337 13.5C80.0337 13.5 75.6337 19.35 75.6337 30.1C75.6337 42.1 80.2337 48.5 88.7837 48.5C93.5337 48.5 98.1337 45.9 99.8837 41.7L100.734 42C98.7337 47 93.9337 49.4 88.6837 49.4C78.1837 49.4 71.1837 42 71.1837 30.9ZM116.232 49V48.55H117.982C120.382 48.55 120.632 48.3 120.632 45.9V16.15C120.632 13.75 120.382 13.5 117.982 13.5H116.232V13.05H137.032C137.832 13.05 138.032 13.15 138.382 13.5H138.432L138.232 10.1L138.682 10.05L139.632 24.7H138.732L138.532 21.2C138.232 15.8 134.282 13.95 129.482 13.95H123.432V14C124.032 14.6 124.532 15.5 124.532 16.6V31.5H126.532C129.332 31.5 132.732 31 132.732 26.2V23.2H133.182V39.75H132.732V37.7C132.732 34.3 130.532 32.4 126.532 32.4H124.532V45.9C124.532 48.3 124.832 48.55 127.232 48.55H130.482V49H116.232ZM141.525 49V48.55H143.275C145.675 48.55 145.925 47.95 145.925 45.55V16.1C145.925 13.7 145.675 13.5 143.275 13.5H141.525V13.05H154.275V13.5H152.525C150.125 13.5 149.825 13.7 149.825 16.1V45.45C149.825 46.55 149.325 47.45 148.725 48.05V48.1H155.475C160.275 48.1 163.475 47.15 163.875 42.35L164.275 37.35H165.275L164.275 51.55L163.775 51.5L163.975 48.55H163.925C163.575 48.9 163.375 49 162.575 49H141.525ZM186.458 49.4C175.308 49.4 167.908 42.05 167.908 31C167.908 20 175.308 12.65 186.458 12.65C197.508 12.65 204.908 20 204.908 31C204.908 42.05 197.508 49.4 186.458 49.4ZM186.608 48.5C195.658 48.5 200.558 42.75 200.558 31.95C200.558 20 195.508 13.55 186.258 13.55C177.158 13.55 172.258 19.35 172.258 30.1C172.258 42.1 177.258 48.5 186.608 48.5ZM204.893 13.05H212.093V13.75C212.093 14.5 212.243 15.2 212.443 15.9L222.793 43.75C222.843 43.9 223.093 44.85 223.093 45.55H223.593C223.593 45.4 223.593 44.8 223.943 43.75L231.093 19.95L230.093 16.6C229.393 14.25 228.943 13.5 227.143 13.5H225.993V13.05H237.193V13.5H232.443V13.6C233.143 13.85 233.743 15 233.993 15.9L242.343 43.75C242.543 44.65 242.643 45.2 242.643 45.55H243.343C243.343 45.15 243.443 44.55 243.793 43.6L253.643 16.55C253.843 16 253.943 15.5 253.943 15.1C253.943 14.05 253.193 13.5 251.493 13.5H249.593V13.05H258.093V13.5H257.343C255.743 13.5 255.293 14.65 254.593 16.6L242.743 49.2L239.943 49.45L231.543 21.55L223.243 49.25L220.443 49.45L208.543 16.6C207.793 14.15 207.443 13.5 205.643 13.5H204.893V13.05ZM275.546 38.7H275.096V35.95C275.096 31.15 272.496 30.6 269.696 30.6H267.696V45.45C267.696 46.55 267.196 47.45 266.596 48.05V48.1H276.546C281.346 48.1 283.646 46.15 283.996 41.35L284.296 37.35H285.096L284.246 50.9H283.796L283.946 48.55H283.896C283.546 48.9 282.846 49 282.046 49H259.396V48.55H261.146C263.546 48.55 263.796 48.3 263.796 45.9V16.15C263.796 13.75 263.546 13.5 261.146 13.5H259.396V13.05H279.346C280.146 13.05 280.846 13.15 281.196 13.5H281.246L281.096 11.2L281.546 11.15L282.446 24.7H281.546L281.346 21.2C281.046 15.8 278.446 13.95 273.646 13.95H266.596V14C267.196 14.6 267.696 15.5 267.696 16.6V29.7H269.696C272.496 29.7 275.096 29.2 275.096 24.4V22.65H275.546V38.7ZM286.984 49V48.55H288.734C291.134 48.55 291.384 48.3 291.384 45.9V16.15C291.384 13.75 291.134 13.5 288.734 13.5H286.984V13.05H300.034C308.034 13.05 313.334 17.5 313.334 24.15C313.334 30.25 308.734 34.4 302.734 34.95L301.734 35V35.3C304.084 35.55 306.184 37.05 307.284 38.75L309.784 42.7C311.034 44.75 313.084 47.8 314.634 47.8C315.134 47.8 315.584 47.7 316.084 47.25L317.184 46.3L317.484 46.65L316.384 47.6C314.784 49 313.434 49.55 312.234 49.55C309.684 49.55 307.934 46.95 306.384 44.5L302.884 39.1C301.234 36.55 300.184 35.25 297.934 35.25H297.334V34.4H299.634C305.684 34.4 308.984 30.85 308.984 24.15C308.984 17.55 305.684 13.95 299.634 13.95H294.434V14C295.034 14.6 295.284 15.45 295.284 16.6V45.9C295.284 48.3 295.584 48.55 297.984 48.55H300.884V49H286.984Z" fill="#111111"/>
</svg>
