<svg width="257" height="51" viewBox="0 0 257 51" fill="none" xmlns="http://www.w3.org/2000/svg">
<path d="M20.034 41H2.94V8.744H18.816L19.74 11.222L19.53 11.348C18.746 10.564 17.99 10.116 17.262 10.004C16.562 9.864 15.414 9.794 13.818 9.794H5.67V21.134H15.372C15.82 21.134 16.156 21.12 16.38 21.092C16.604 21.036 16.856 20.924 17.136 20.756L17.22 20.798V22.52L17.136 22.562C16.856 22.394 16.604 22.296 16.38 22.268C16.156 22.212 15.82 22.184 15.372 22.184H5.67V39.95H14.028C15.54 39.95 16.954 39.852 18.27 39.656C19.586 39.432 20.636 38.942 21.42 38.186L21.63 38.354L20.034 41ZM28.1466 41H25.4166V8.744L25.5006 8.702C25.7246 8.758 25.9206 8.8 26.0886 8.828C26.2846 8.856 26.4946 8.87 26.7186 8.87C27.7546 8.87 28.6506 8.716 29.4066 8.408C30.1626 8.1 31.2266 7.946 32.5986 7.946C34.7826 7.946 36.8966 8.772 38.9406 10.424C40.9846 12.048 42.0066 14.246 42.0066 17.018C42.0066 20.294 40.8446 22.646 38.5206 24.074C36.1966 25.502 34.1386 26.216 32.3466 26.216C31.7306 26.216 31.1986 26.174 30.7506 26.09C30.3306 25.978 30.0366 25.866 29.8686 25.754L30.0786 25.25C30.2746 25.306 30.5406 25.376 30.8766 25.46C31.2126 25.544 31.7026 25.586 32.3466 25.586C33.9986 25.586 35.4686 24.844 36.7566 23.36C38.0726 21.876 38.7306 19.762 38.7306 17.018C38.7306 14.666 38.1006 12.706 36.8406 11.138C35.6086 9.57 34.0686 8.786 32.2206 8.786C31.3246 8.786 30.5266 8.912 29.8266 9.164C29.1546 9.388 28.5946 9.64 28.1466 9.92V41ZM47.9962 8.744V41H45.3502V8.744H47.9962ZM82.3994 37.64C81.3634 38.564 79.8934 39.474 77.9894 40.37C76.0854 41.266 73.8174 41.714 71.1854 41.714C66.5374 41.714 62.3514 40.216 58.6274 37.22C54.9034 34.224 53.0414 30.164 53.0414 25.04C53.0414 19.72 54.9734 15.506 58.8374 12.398C62.7294 9.29 66.9434 7.736 71.4794 7.736C73.8594 7.736 75.9454 8.1 77.7374 8.828C79.5294 9.528 80.9014 10.228 81.8534 10.928L80.7194 13.112C79.6554 11.936 78.3814 10.914 76.8974 10.046C75.4134 9.15 73.4534 8.702 71.0174 8.702C67.0134 8.674 63.5834 10.046 60.7274 12.818C57.8714 15.59 56.4434 19.328 56.4434 24.032C56.4434 29.912 58.1234 34.07 61.4834 36.506C64.8434 38.942 68.3714 40.16 72.0674 40.16C74.4754 40.16 76.5474 39.782 78.2834 39.026C80.0474 38.27 81.2934 37.64 82.0214 37.136L82.3994 37.64ZM101.072 41H98.3423V8.744H113.378L114.47 11.558L114.26 11.684C113.476 10.788 112.692 10.256 111.908 10.088C111.152 9.892 109.976 9.794 108.38 9.794H101.072V21.554H109.136C109.584 21.554 109.92 21.54 110.144 21.512C110.368 21.456 110.62 21.344 110.9 21.176L110.984 21.218V22.94L110.9 22.982C110.62 22.814 110.368 22.716 110.144 22.688C109.92 22.632 109.584 22.604 109.136 22.604H101.072V41ZM118.522 41V8.744H121.252V39.95H127.468C129.54 39.95 131.108 39.768 132.172 39.404C133.236 39.04 134.076 38.494 134.692 37.766L134.944 37.934L133.096 41H118.522ZM136.673 24.788C136.645 19.972 138.521 15.926 142.301 12.65C146.109 9.374 150.211 7.736 154.607 7.736C159.031 7.736 163.133 9.374 166.913 12.65C170.721 15.898 172.625 19.944 172.625 24.788C172.625 29.688 170.721 33.762 166.913 37.01C163.133 40.258 159.031 41.882 154.607 41.882C150.211 41.882 146.123 40.258 142.343 37.01C138.563 33.734 136.673 29.66 136.673 24.788ZM140.243 24.746C140.243 29.478 141.615 33.37 144.359 36.422C147.103 39.446 150.519 40.958 154.607 40.958C158.723 40.958 162.153 39.446 164.897 36.422C167.669 33.398 169.055 29.52 169.055 24.788C169.055 20.084 167.669 16.22 164.897 13.196C162.153 10.172 158.723 8.66 154.607 8.66C150.519 8.66 147.089 10.186 144.317 13.238C141.573 16.262 140.215 20.098 140.243 24.746ZM186.738 41L173.424 8.744H176.448L187.956 37.01L191.568 28.274L183.504 8.744H186.402L193.08 25.124L199.8 8.744H201.228L193.794 26.804L197.994 37.136L209.628 8.744H211.056L197.742 41H196.818L192.24 29.912L187.662 41H186.738ZM231.511 41H214.417V8.744H230.293L231.217 11.222L231.007 11.348C230.223 10.564 229.467 10.116 228.739 10.004C228.039 9.864 226.891 9.794 225.295 9.794H217.147V21.134H226.849C227.297 21.134 227.633 21.12 227.857 21.092C228.081 21.036 228.333 20.924 228.613 20.756L228.697 20.798V22.52L228.613 22.562C228.333 22.394 228.081 22.296 227.857 22.268C227.633 22.212 227.297 22.184 226.849 22.184H217.147V39.95H225.505C227.017 39.95 228.431 39.852 229.747 39.656C231.063 39.432 232.113 38.942 232.897 38.186L233.107 38.354L231.511 41ZM253.063 41.336C251.719 41.336 250.543 40.622 249.535 39.194C248.555 37.738 248.065 35.596 248.065 32.768V29.492C248.065 25.908 247.435 23.542 246.175 22.394C244.943 21.218 243.865 20.63 242.941 20.63C242.661 20.63 242.395 20.658 242.143 20.714C241.891 20.77 241.625 20.882 241.345 21.05L241.429 20.084C242.885 19.832 244.243 19.216 245.503 18.236C246.791 17.256 247.435 15.814 247.435 13.91C247.435 12.37 247.015 11.124 246.175 10.172C245.363 9.22 244.299 8.744 242.983 8.744C242.255 8.744 241.625 8.856 241.093 9.08C240.589 9.276 240.099 9.528 239.623 9.836V41H236.893V8.744L236.977 8.702C237.201 8.758 237.397 8.8 237.565 8.828C237.733 8.856 237.929 8.87 238.153 8.87C239.105 8.87 239.889 8.716 240.505 8.408C241.121 8.1 242.031 7.946 243.235 7.946C245.139 7.946 246.819 8.52 248.275 9.668C249.759 10.816 250.501 12.23 250.501 13.91C250.501 15.646 249.605 17.06 247.813 18.152C246.021 19.216 244.733 19.846 243.949 20.042C245.181 20.154 246.623 20.882 248.275 22.226C249.955 23.57 250.795 25.992 250.795 29.492V32.264C250.795 35.512 251.103 37.682 251.719 38.774C252.335 39.866 253.035 40.412 253.819 40.412C254.155 40.412 254.477 40.356 254.785 40.244C255.121 40.132 255.457 39.908 255.793 39.572L256.045 39.824C255.681 40.3 255.247 40.678 254.743 40.958C254.239 41.21 253.679 41.336 253.063 41.336Z" fill="#111111"/>
</svg>
